<svg width="24" height="22" viewBox="0 0 24 22" fill="none" xmlns="http://www.w3.org/2000/svg">
    <path fill-rule="evenodd" clip-rule="evenodd" d="M0.901217 13.2871V13.0681C0.933337 12.4202 1.14099 11.7925 1.50275 11.2496C2.10489 10.5975 2.51709 9.79831 2.6961 8.93598C2.6961 8.2695 2.6961 7.5935 2.75432 6.92703C3.05508 3.71842 6.22767 1.5 9.36145 1.5H9.43909C12.5729 1.5 15.7454 3.71842 16.0559 6.92703C16.1141 7.5935 16.0559 8.2695 16.1044 8.93598C16.2858 9.8003 16.6976 10.6019 17.2978 11.2591C17.6622 11.7972 17.8702 12.4227 17.8993 13.0681V13.2776C17.921 14.148 17.6212 14.9968 17.0552 15.6674C16.3074 16.4515 15.2925 16.9393 14.2028 17.0384C11.0074 17.3812 7.78342 17.3812 4.58801 17.0384C3.49953 16.935 2.48615 16.4479 1.7356 15.6674C1.17839 14.9963 0.882627 14.1526 0.901217 13.2871Z" stroke="white" stroke-width="1.8" stroke-linecap="round" stroke-linejoin="round"/>
    <path d="M6.99414 19.2954C7.49342 19.922 8.2266 20.3276 9.03143 20.4223C9.83631 20.517 10.6464 20.2931 11.2825 19.8C11.4781 19.6542 11.6541 19.4846 11.8064 19.2954" stroke="white" stroke-width="1.5" stroke-linecap="round" stroke-linejoin="round"/>
</svg>
