<?xml version="1.0" encoding="UTF-8"?>
<svg xmlns="http://www.w3.org/2000/svg" xmlns:xlink="http://www.w3.org/1999/xlink" width="250px" height="24px" viewBox="0 0 252 24" version="1.1">
<g id="surface1">
<path style=" stroke:none;fill-rule:nonzero;fill:rgb(91.764706%,0%,16.078431%);fill-opacity:1;" d="M 27.699219 9.179688 C 31.785156 9.179688 34.28125 12.582031 33.179688 16.671875 C 32.074219 20.789062 27.792969 24.164062 23.675781 24.164062 L 0 24.164062 L 5.742188 18.355469 L 25.234375 18.355469 C 26.171875 18.355469 27.113281 17.609375 27.371094 16.671875 C 27.632812 15.761719 27.046875 14.984375 26.140625 14.984375 L 10.832031 14.984375 C 6.746094 14.984375 4.25 11.578125 5.351562 7.492188 C 6.453125 3.40625 10.734375 0 14.855469 0 L 61.265625 0 C 65.351562 0 67.847656 3.40625 66.746094 7.492188 L 66.164062 9.699219 C 65.058594 13.785156 60.777344 17.1875 56.660156 17.1875 L 44.140625 17.1875 C 43.234375 17.1875 42.257812 17.96875 42 18.875 L 40.574219 24.164062 L 34.765625 24.164062 L 36.195312 18.875 C 37.296875 14.789062 41.578125 11.382812 45.699219 11.382812 L 58.214844 11.382812 C 59.125 11.382812 60.097656 10.605469 60.355469 9.699219 L 60.941406 7.492188 C 61.199219 6.582031 60.617188 5.804688 59.707031 5.804688 L 13.296875 5.804688 C 12.390625 5.804688 11.417969 6.582031 11.15625 7.492188 C 10.898438 8.398438 11.480469 9.179688 12.390625 9.179688 Z M 132.421875 9.699219 L 133.003906 7.492188 C 134.109375 3.40625 131.609375 0 127.523438 0 L 112.214844 0 C 108.128906 0 103.816406 3.40625 102.714844 7.492188 L 98.238281 24.164062 L 104.042969 24.164062 L 108.519531 7.492188 C 108.777344 6.582031 109.75 5.804688 110.660156 5.804688 L 125.96875 5.804688 C 126.875 5.804688 127.460938 6.582031 127.199219 7.492188 L 126.617188 9.699219 C 126.355469 10.605469 125.382812 11.382812 124.476562 11.382812 L 113.96875 11.382812 L 109.652344 17.1875 L 115.234375 17.1875 L 120.324219 24.164062 L 128.53125 24.164062 L 123.4375 17.1875 C 127.394531 16.863281 131.320312 13.589844 132.421875 9.699219 Z M 78.714844 0 C 74.628906 0 70.3125 3.40625 69.210938 7.492188 C 68.398438 10.539062 67.558594 13.621094 66.746094 16.671875 C 65.644531 20.757812 68.140625 24.164062 72.226562 24.164062 C 77.320312 24.164062 82.441406 24.164062 87.535156 24.164062 C 91.621094 24.164062 95.933594 20.757812 97.039062 16.671875 L 99.503906 7.492188 C 100.605469 3.40625 98.109375 0 94.023438 0 Z M 75.015625 7.492188 C 75.277344 6.582031 76.25 5.804688 77.15625 5.804688 L 92.464844 5.804688 C 93.371094 5.804688 93.957031 6.582031 93.699219 7.492188 L 91.234375 16.671875 C 90.972656 17.578125 90 18.355469 89.09375 18.355469 C 84 18.355469 78.875 18.355469 73.785156 18.355469 C 72.875 18.355469 72.292969 17.578125 72.550781 16.671875 C 73.394531 13.589844 74.207031 10.539062 75.015625 7.492188 Z M 160.605469 5.804688 L 151.136719 5.804688 L 146.207031 24.164062 L 140.398438 24.164062 L 145.328125 5.804688 L 135.859375 5.804688 L 134.628906 0 L 164.917969 0 Z M 160.605469 5.804688 "/>
<path style=" stroke:none;fill-rule:nonzero;fill:rgb(91.764706%,0%,16.078431%);fill-opacity:1;" d="M 195.046875 0 L 172.605469 0 C 168.519531 0 164.207031 3.40625 163.101562 7.492188 C 162 11.578125 164.496094 14.984375 168.582031 14.984375 L 183.890625 14.984375 C 184.800781 14.984375 185.382812 15.761719 185.125 16.671875 C 184.863281 17.578125 183.925781 18.355469 182.984375 18.355469 L 163.492188 18.355469 L 157.75 24.164062 L 181.425781 24.164062 C 185.511719 24.164062 189.828125 20.789062 190.929688 16.671875 C 192.03125 12.582031 189.535156 9.179688 185.449219 9.179688 L 170.140625 9.179688 C 169.234375 9.179688 168.648438 8.398438 168.90625 7.492188 C 169.167969 6.582031 170.140625 5.804688 171.046875 5.804688 L 190.863281 5.804688 "/>
<path style=" stroke:none;fill-rule:nonzero;fill:rgb(100%,100%,100%);fill-opacity:1;" d="M 226.996094 11.902344 L 219.242188 11.902344 C 217.167969 11.902344 214.996094 13.621094 214.441406 15.699219 C 214.023438 17.253906 213.601562 18.8125 213.210938 20.335938 C 212.660156 22.410156 213.925781 24.128906 216 24.128906 L 223.75 24.128906 C 225.828125 24.128906 228 22.410156 228.550781 20.335938 L 229.785156 15.699219 C 230.300781 13.621094 229.039062 11.902344 226.996094 11.902344 Z M 226.832031 15.699219 L 225.601562 20.335938 C 225.46875 20.789062 224.984375 21.179688 224.53125 21.179688 L 216.777344 21.179688 C 216.324219 21.179688 216.03125 20.789062 216.164062 20.335938 C 216.582031 18.777344 217.003906 17.222656 217.394531 15.699219 C 217.523438 15.242188 218.011719 14.855469 218.464844 14.855469 L 226.214844 14.855469 C 226.671875 14.855469 226.929688 15.242188 226.832031 15.699219 Z M 226.832031 15.699219 "/>
<path style=" stroke:none;fill-rule:nonzero;fill:rgb(100%,100%,100%);fill-opacity:1;" d="M 194.109375 20.984375 L 193.363281 24 C 193.328125 24.066406 193.265625 24.128906 193.199219 24.128906 L 190.800781 24.128906 C 190.703125 24.128906 190.605469 24.03125 190.636719 23.933594 L 191.382812 20.917969 C 191.417969 20.855469 191.480469 20.789062 191.546875 20.789062 L 193.945312 20.789062 C 194.074219 20.789062 194.140625 20.886719 194.109375 20.984375 Z M 194.109375 20.984375 "/>
<path style=" stroke:none;fill-rule:nonzero;fill:rgb(100%,100%,100%);fill-opacity:1;" d="M 198.972656 20.789062 L 211.460938 20.789062 L 211.003906 22.605469 C 210.777344 23.511719 210.097656 24.128906 209.320312 24.128906 L 197.773438 24.128906 C 196.574219 24.128906 195.761719 22.734375 196.085938 21.371094 L 197.773438 14.628906 C 198.195312 13.003906 199.394531 11.902344 200.757812 11.902344 L 213.699219 11.902344 L 211.394531 16.605469 C 211.070312 17.222656 210.488281 17.609375 209.902344 17.609375 L 208.023438 17.609375 L 209.09375 15.242188 L 201.015625 15.242188 C 200.628906 15.242188 200.269531 15.566406 200.171875 16.023438 Z M 198.972656 20.789062 "/>
<path style=" stroke:none;fill-rule:nonzero;fill:rgb(100%,100%,100%);fill-opacity:1;" d="M 252.03125 11.902344 L 249.371094 22.605469 C 249.144531 23.511719 248.464844 24.128906 247.6875 24.128906 L 246.257812 24.128906 L 248.238281 16.25 L 239.675781 22.898438 L 234.421875 16.25 L 232.832031 22.605469 C 232.605469 23.511719 231.925781 24.128906 231.144531 24.128906 L 229.71875 24.128906 L 232.378906 13.425781 C 232.605469 12.519531 233.285156 11.902344 234.066406 11.902344 L 235.394531 11.902344 L 240.714844 18.679688 L 248.660156 12.519531 C 249.144531 12.128906 249.730469 11.933594 250.3125 11.933594 L 252.03125 11.933594 Z M 252.03125 11.902344 "/>
</g>
</svg>
