<svg width="185" height="18" viewBox="0 0 185 18" fill="none" xmlns="http://www.w3.org/2000/svg">
<path d="M20.3322 6.73822C23.3314 6.73822 25.1637 9.23566 24.3551 12.2378C23.5436 15.2599 20.401 17.7373 17.3789 17.7373H0L4.21497 13.4736H18.5229C19.2111 13.4736 19.9021 12.9259 20.0914 12.2378C20.2835 11.5697 19.8534 10.9991 19.1882 10.9991H7.9511C4.95187 10.9991 3.11965 8.49876 3.92824 5.49954C4.73682 2.50031 7.87942 0 10.9044 0H44.9712C47.9704 0 49.8026 2.50031 48.994 5.49954L48.5668 7.11958C47.7553 10.1188 44.6127 12.6162 41.5906 12.6162H32.4008C31.7356 12.6162 31.0187 13.1897 30.8295 13.8549L29.7829 17.7373H25.5192L26.5687 13.8549C27.3772 10.8557 30.5198 8.35539 33.5449 8.35539H42.7318C43.3999 8.35539 44.1138 7.78479 44.3031 7.11958L44.7332 5.49954C44.9224 4.83145 44.4952 4.26085 43.8271 4.26085H9.76038C9.09516 4.26085 8.3812 4.83145 8.18909 5.49954C7.99984 6.16475 8.42708 6.73822 9.09516 6.73822H20.3322ZM97.2024 7.11958L97.6296 5.49954C98.4411 2.50031 96.606 0 93.6068 0H82.3697C79.3705 0 76.205 2.50031 75.3964 5.49954L72.1104 17.7373H76.3713L79.6572 5.49954C79.8465 4.83145 80.5604 4.26085 81.2285 4.26085H92.4656C93.1308 4.26085 93.5609 4.83145 93.3688 5.49954L92.9415 7.11958C92.7494 7.78479 92.0355 8.35539 91.3703 8.35539H83.6571L80.4887 12.6162H84.5862L88.3223 17.7373H94.3465L90.6075 12.6162C93.5121 12.3783 96.3938 9.97543 97.2024 7.11958ZM57.7795 0C54.7803 0 51.6119 2.50031 50.8033 5.49954C50.2069 7.73605 49.5904 9.99837 48.994 12.2378C48.1854 15.237 50.0177 17.7373 53.0169 17.7373C56.7559 17.7373 60.5149 17.7373 64.2539 17.7373C67.2532 17.7373 70.4187 15.237 71.2301 12.2378L73.0394 5.49954C73.848 2.50031 72.0158 0 69.0166 0H57.7795ZM55.0642 5.49954C55.2563 4.83145 55.9702 4.26085 56.6354 4.26085H67.8725C68.5377 4.26085 68.9678 4.83145 68.7786 5.49954L66.9693 12.2378C66.7772 12.903 66.0632 13.4736 65.398 13.4736C61.659 13.4736 57.8971 13.4736 54.1609 13.4736C53.4929 13.4736 53.0656 12.903 53.2549 12.2378C53.8742 9.97543 54.4706 7.73605 55.0642 5.49954ZM117.89 4.26085H110.94L107.321 17.7373H103.057L106.676 4.26085H99.7256L98.8224 0H121.056L117.89 4.26085Z" fill="#EA0029"/>
<path d="M143.171 0H126.698C123.699 0 120.534 2.50031 119.722 5.49954C118.914 8.49876 120.746 10.9991 123.745 10.9991H134.982C135.65 10.9991 136.077 11.5697 135.888 12.2378C135.696 12.903 135.008 13.4736 134.317 13.4736H120.009L115.794 17.7373H133.173C136.172 17.7373 139.34 15.2599 140.149 12.2378C140.958 9.23566 139.125 6.73822 136.126 6.73822H124.889C124.224 6.73822 123.794 6.16475 123.983 5.49954C124.175 4.83145 124.889 4.26085 125.554 4.26085H140.1" fill="#EA0029"/>
<path d="M166.624 8.7373H160.932C159.409 8.7373 157.815 9.99893 157.408 11.5243C157.101 12.6655 156.792 13.8096 156.505 14.9279C156.101 16.4504 157.03 17.712 158.552 17.712H164.241C165.766 17.712 167.361 16.4504 167.765 14.9279L168.671 11.5243C169.049 9.99893 168.123 8.7373 166.624 8.7373ZM166.503 11.5243L165.6 14.9279C165.503 15.2605 165.147 15.5472 164.814 15.5472H159.123C158.79 15.5472 158.575 15.2605 158.673 14.9279C158.979 13.7838 159.289 12.6426 159.576 11.5243C159.67 11.1889 160.029 10.905 160.361 10.905H166.05C166.386 10.905 166.575 11.1889 166.503 11.5243Z" fill="white"/>
<path d="M142.483 15.4041L141.935 17.6177C141.91 17.6664 141.864 17.7123 141.815 17.7123H140.054C139.983 17.7123 139.911 17.6406 139.934 17.5689L140.482 15.3554C140.508 15.3095 140.553 15.2607 140.602 15.2607H142.363C142.457 15.2607 142.506 15.3324 142.483 15.4041Z" fill="white"/>
<path d="M146.053 15.2605H155.22L154.885 16.5938C154.718 17.259 154.22 17.712 153.649 17.712H145.173C144.293 17.712 143.696 16.6884 143.934 15.6877L145.173 10.7387C145.483 9.54589 146.363 8.7373 147.364 8.7373H156.863L155.172 12.1896C154.934 12.6426 154.506 12.9265 154.076 12.9265H152.697L153.483 11.1889H147.553C147.269 11.1889 147.005 11.4269 146.934 11.7623L146.053 15.2605Z" fill="white"/>
<path d="M185 8.7373L183.048 16.5938C182.881 17.259 182.382 17.712 181.812 17.712H180.762L182.216 11.9286L175.931 16.8088L172.074 11.9286L170.907 16.5938C170.741 17.259 170.242 17.712 169.669 17.712H168.622L170.575 9.85556C170.741 9.19034 171.24 8.7373 171.813 8.7373H172.788L176.694 13.7121L182.526 9.19034C182.881 8.90361 183.311 8.76024 183.739 8.76024H185V8.7373Z" fill="white"/>
</svg>
