<svg width="170" height="17" viewBox="0 0 170 17" fill="none" xmlns="http://www.w3.org/2000/svg">
    <path d="M18.6837 6.19189C21.4398 6.19189 23.1234 8.48684 22.3804 11.2455C21.6347 14.0227 18.7469 16.2992 15.9698 16.2992H0L3.87323 12.3811H17.0211C17.6535 12.3811 18.2885 11.8779 18.4624 11.2455C18.6389 10.6316 18.2437 10.1073 17.6324 10.1073H7.30643C4.55038 10.1073 2.86671 7.80969 3.60974 5.05364C4.35277 2.29759 7.24056 0 10.0203 0H41.3249C44.081 0 45.7647 2.29759 45.0216 5.05364L44.629 6.54233C43.8834 9.29838 40.9956 11.5933 38.2185 11.5933H29.7738C29.1625 11.5933 28.5038 12.1203 28.3299 12.7316L27.3682 16.2992H23.4501L24.4145 12.7316C25.1575 9.97553 28.0453 7.67795 30.8251 7.67795H39.2671C39.8811 7.67795 40.5371 7.15361 40.711 6.54233L41.1063 5.05364C41.2802 4.43972 40.8876 3.91538 40.2736 3.91538H8.96902C8.35774 3.91538 7.70166 4.43972 7.52512 5.05364C7.35122 5.66492 7.74382 6.19189 8.35774 6.19189H18.6837ZM89.3213 6.54233L89.7139 5.05364C90.4596 2.29759 88.7733 0 86.0172 0H75.6913C72.9352 0 70.0263 2.29759 69.2833 5.05364L66.2638 16.2992H70.1792L73.1987 5.05364C73.3726 4.43972 74.0287 3.91538 74.6426 3.91538H84.9686C85.5798 3.91538 85.9751 4.43972 85.7985 5.05364L85.4059 6.54233C85.2294 7.15361 84.5733 7.67795 83.9621 7.67795H76.8743L73.9628 11.5933H77.728L81.1612 16.2992H86.697L83.2612 11.5933C85.9303 11.3746 88.5783 9.16664 89.3213 6.54233ZM53.0948 0C50.3388 0 47.4273 2.29759 46.6842 5.05364C46.1362 7.10882 45.5697 9.18771 45.0216 11.2455C44.2786 14.0016 45.9623 16.2992 48.7183 16.2992C52.1542 16.2992 55.6085 16.2992 59.0443 16.2992C61.8004 16.2992 64.7092 14.0016 65.4549 11.2455L67.1175 5.05364C67.8605 2.29759 66.1768 0 63.4208 0H53.0948ZM50.5996 5.05364C50.7761 4.43972 51.4322 3.91538 52.0435 3.91538H62.3695C62.9808 3.91538 63.376 4.43972 63.2021 5.05364L61.5395 11.2455C61.363 11.8568 60.7069 12.3811 60.0956 12.3811C56.6598 12.3811 53.2028 12.3811 49.7696 12.3811C49.1557 12.3811 48.7631 11.8568 48.937 11.2455C49.5061 9.16664 50.0542 7.10882 50.5996 5.05364ZM108.332 3.91538H101.945L98.6197 16.2992H94.7017L98.0269 3.91538H91.64L90.81 0H111.241L108.332 3.91538Z" fill="#EA0029"/>
    <path d="M131.563 0H116.426C113.67 0 110.761 2.29759 110.016 5.05364C109.272 7.80969 110.956 10.1073 113.712 10.1073H124.038C124.652 10.1073 125.045 10.6316 124.871 11.2455C124.694 11.8568 124.062 12.3811 123.427 12.3811H110.279L106.406 16.2992H122.376C125.132 16.2992 128.043 14.0227 128.786 11.2455C129.529 8.48684 127.846 6.19189 125.089 6.19189H114.763C114.152 6.19189 113.757 5.66492 113.931 5.05364C114.107 4.43972 114.763 3.91538 115.375 3.91538H128.741" fill="#EA0029"/>
    <path d="M153.113 8.02856H147.883C146.484 8.02856 145.019 9.1879 144.645 10.5896C144.363 11.6383 144.079 12.6896 143.815 13.7172C143.444 15.1163 144.297 16.2756 145.696 16.2756H150.924C152.326 16.2756 153.791 15.1163 154.162 13.7172L154.995 10.5896C155.343 9.1879 154.491 8.02856 153.113 8.02856ZM153.003 10.5896L152.173 13.7172C152.083 14.0228 151.756 14.2863 151.451 14.2863H146.221C145.915 14.2863 145.717 14.0228 145.807 13.7172C146.089 12.6659 146.373 11.6172 146.637 10.5896C146.724 10.2814 147.053 10.0205 147.359 10.0205H152.586C152.895 10.0205 153.069 10.2814 153.003 10.5896Z" fill="white"/>
    <path d="M130.931 14.1543L130.428 16.1884C130.404 16.2332 130.362 16.2754 130.317 16.2754H128.699C128.633 16.2754 128.567 16.2095 128.588 16.1436L129.092 14.1095C129.115 14.0674 129.158 14.0226 129.202 14.0226H130.82C130.907 14.0226 130.952 14.0885 130.931 14.1543Z" fill="white"/>
    <path d="M134.211 14.0228H142.635L142.327 15.248C142.174 15.8593 141.715 16.2756 141.191 16.2756H133.402C132.594 16.2756 132.045 15.335 132.264 14.4154L133.402 9.86769C133.687 8.77159 134.496 8.02856 135.415 8.02856H144.145L142.59 11.2009C142.371 11.6172 141.979 11.8781 141.584 11.8781H140.316L141.038 10.2814H135.589C135.329 10.2814 135.086 10.5001 135.02 10.8083L134.211 14.0228Z" fill="white"/>
    <path d="M170 8.02856L168.206 15.248C168.053 15.8593 167.595 16.2756 167.07 16.2756H166.106L167.442 10.9611L161.666 15.4457L158.123 10.9611L157.05 15.248C156.897 15.8593 156.439 16.2756 155.912 16.2756H154.95L156.745 9.05616C156.897 8.44487 157.356 8.02856 157.883 8.02856H158.779L162.367 12.6L167.727 8.44487C168.053 8.18139 168.449 8.04964 168.841 8.04964H170V8.02856Z" fill="white"/>
</svg>
