<svg width="28" height="28" viewBox="0 0 28 28" fill="none" xmlns="http://www.w3.org/2000/svg">
    <path d="M10.7871 8.75H5.53711C5.05386 8.75 4.66211 9.14175 4.66211 9.625V14.875C4.66211 15.3582 5.05386 15.75 5.53711 15.75H10.7871C11.2704 15.75 11.6621 15.3582 11.6621 14.875V9.625C11.6621 9.14175 11.2704 8.75 10.7871 8.75Z" stroke="#FAFAFA" stroke-width="1.6" stroke-linejoin="round"/>
    <path d="M10.7871 19.25H5.53711C5.05386 19.25 4.66211 19.6418 4.66211 20.125V25.375C4.66211 25.8582 5.05386 26.25 5.53711 26.25H10.7871C11.2704 26.25 11.6621 25.8582 11.6621 25.375V20.125C11.6621 19.6418 11.2704 19.25 10.7871 19.25Z" stroke="#FAFAFA" stroke-width="1.6" stroke-linejoin="round"/>
    <path d="M21.2871 19H16.0371C15.5539 19 15.1621 19.3918 15.1621 19.875V25.125C15.1621 25.6082 15.5539 26 16.0371 26H21.2871C21.7704 26 22.1621 25.6082 22.1621 25.125V19.875C22.1621 19.3918 21.7704 19 21.2871 19Z" stroke="#FAFAFA" stroke-width="1.6" stroke-linejoin="round"/>
    <g clip-path="url(#clip0_1057_712)">
        <path d="M21.5109 9.20086C20.9376 8.62814 20.2074 8.23823 19.4126 8.08042C18.6178 7.92261 17.794 8.00398 17.0454 8.31426C16.2969 8.62454 15.6571 9.14978 15.207 9.8236C14.7568 10.4974 14.5166 11.2896 14.5166 12.0999C14.5166 12.9102 14.7568 13.7024 15.207 14.3762C15.6571 15.05 16.2969 15.5753 17.0454 15.8856C17.794 16.1958 18.6178 16.2772 19.4126 16.1194C20.2074 15.9616 20.9376 15.5717 21.5109 14.9989C22.2786 14.2295 22.7098 13.1869 22.7098 12.0999C22.7098 11.0129 22.2786 9.97033 21.5109 9.20086ZM22.006 11.735C21.5962 11.7847 21.1806 11.7406 20.7905 11.6059C20.4003 11.4712 20.0459 11.2496 19.7541 10.9577C19.4623 10.6659 19.2407 10.3115 19.1061 9.92131C18.9714 9.53116 18.9273 9.1155 18.9771 8.70579C19.7526 8.78732 20.4766 9.13268 21.0279 9.68408C21.5792 10.2355 21.9245 10.9595 22.006 11.735ZM15.2177 12.4648C15.6274 12.4151 16.0431 12.4593 16.4332 12.5939C16.8234 12.7286 17.1778 12.9502 17.4696 13.2421C17.7614 13.5339 17.983 13.8884 18.1176 14.2785C18.2522 14.6686 18.2964 15.0843 18.2466 15.494C17.4711 15.4125 16.7471 15.0671 16.1958 14.5157C15.6444 13.9643 15.2992 13.2403 15.2177 12.4648ZM21.0278 14.5148C20.4664 15.0774 19.7257 15.4254 18.9344 15.4985C18.9834 14.9973 18.9207 14.4916 18.7509 14.0176C18.581 13.5435 18.3082 13.1131 17.9521 12.7571C17.5959 12.4012 17.1653 12.1286 16.6912 11.959C16.2171 11.7894 15.7113 11.727 15.2102 11.7763C15.2845 10.9851 15.6329 10.2448 16.1951 9.68311C16.7573 9.12146 17.498 8.77385 18.2893 8.70032C18.2434 9.17406 18.297 9.65217 18.4469 10.1039C18.5968 10.5557 18.8395 10.9711 19.1595 11.3234C19.4794 11.6758 19.8696 11.9573 20.3049 12.1499C20.7401 12.3424 21.2109 12.4418 21.6868 12.4416C21.7952 12.4416 21.9038 12.4361 22.0125 12.4259C21.9382 13.2161 21.5899 13.9555 21.0278 14.5158V14.5148Z" fill="#FAFAFA"/>
    </g>
    <defs>
        <clipPath id="clip0_1057_712">
            <rect width="8.2" height="8.2" fill="white" transform="translate(14.5117 8)"/>
        </clipPath>
    </defs>
</svg>
