<svg width="24" height="48" viewBox="0 0 24 48" fill="none" xmlns="http://www.w3.org/2000/svg">
    <path d="M2.76153 32.6H4.64553L5.48553 38.612H5.50953L6.34953 32.6H8.23353V41H6.98553V34.64H6.96153L6.00153 41H4.89753L3.93753 34.64H3.91353V41H2.76153V32.6ZM11.1266 41.12C10.4786 41.12 9.98256 40.936 9.63856 40.568C9.29456 40.2 9.12256 39.68 9.12256 39.008V34.592C9.12256 33.92 9.29456 33.4 9.63856 33.032C9.98256 32.664 10.4786 32.48 11.1266 32.48C11.7746 32.48 12.2706 32.664 12.6146 33.032C12.9586 33.4 13.1306 33.92 13.1306 34.592V39.008C13.1306 39.68 12.9586 40.2 12.6146 40.568C12.2706 40.936 11.7746 41.12 11.1266 41.12ZM11.1266 39.92C11.5826 39.92 11.8106 39.644 11.8106 39.092V34.508C11.8106 33.956 11.5826 33.68 11.1266 33.68C10.6706 33.68 10.4426 33.956 10.4426 34.508V39.092C10.4426 39.644 10.6706 39.92 11.1266 39.92ZM14.0233 32.6H15.9793C16.6593 32.6 17.1553 32.76 17.4673 33.08C17.7793 33.392 17.9353 33.876 17.9353 34.532V35.048C17.9353 35.92 17.6473 36.472 17.0713 36.704V36.728C17.3913 36.824 17.6153 37.02 17.7433 37.316C17.8793 37.612 17.9473 38.008 17.9473 38.504V39.98C17.9473 40.22 17.9553 40.416 17.9713 40.568C17.9873 40.712 18.0273 40.856 18.0913 41H16.7473C16.6993 40.864 16.6673 40.736 16.6513 40.616C16.6353 40.496 16.6273 40.28 16.6273 39.968V38.432C16.6273 38.048 16.5633 37.78 16.4353 37.628C16.3153 37.476 16.1033 37.4 15.7993 37.4H15.3433V41H14.0233V32.6ZM15.8233 36.2C16.0873 36.2 16.2833 36.132 16.4113 35.996C16.5473 35.86 16.6152 35.632 16.6152 35.312V34.664C16.6152 34.36 16.5593 34.14 16.4473 34.004C16.3433 33.868 16.1753 33.8 15.9433 33.8H15.3433V36.2H15.8233ZM18.8631 32.6H22.4631V33.8H20.1831V36.02H21.9951V37.22H20.1831V39.8H22.4631V41H18.8631V32.6Z" fill="#FAFAFA"/>
    <path d="M9.875 9.25H15.125C19.5 9.25 21.25 11 21.25 15.375V20.625C21.25 25 19.5 26.75 15.125 26.75H9.875C5.5 26.75 3.75 25 3.75 20.625V15.375C3.75 11 5.5 9.25 9.875 9.25Z" stroke="#FAFAFA" stroke-width="1.6" stroke-linecap="round" stroke-linejoin="round"/>
    <path d="M15.9971 18H16.006" stroke="#FAFAFA" stroke-width="1.83333" stroke-linecap="round" stroke-linejoin="round"/>
    <path d="M12.4961 18H12.5051" stroke="#FAFAFA" stroke-width="1.83333" stroke-linecap="round" stroke-linejoin="round"/>
    <path d="M8.99512 18H9.0041" stroke="#FAFAFA" stroke-width="1.83333" stroke-linecap="round" stroke-linejoin="round"/>
</svg>
