<svg width="30" height="48" viewBox="0 0 30 48" fill="none" xmlns="http://www.w3.org/2000/svg">
    <circle cx="22.2894" cy="9.9222" r="1.9222" stroke="#FAFAFA" stroke-width="2" stroke-linecap="round" stroke-linejoin="round"/>
    <path d="M17.2187 8.84229H9.95098C6.93954 8.84229 5.07227 10.975 5.07227 13.9864V22.0688C5.07227 25.0803 6.90293 27.2038 9.95098 27.2038H18.5551C21.5665 27.2038 23.4338 25.0803 23.4338 22.0688V15.0299" stroke="#FAFAFA" stroke-width="2" stroke-linecap="round" stroke-linejoin="round"/>
    <path d="M20.2949 13.7217H13.0746C11.7599 13.7217 10.3724 14.8494 10.0167 16.2021C9.66233 17.5549 10.4654 18.6826 11.78 18.6826H16.7055C16.9983 18.6826 17.1856 18.9399 17.1026 19.2412C17.0184 19.5413 16.7168 19.7986 16.4139 19.7986H10.1424L8.29492 21.7217H15.9124C17.2271 21.7217 18.6158 20.6043 18.9702 19.2412C19.3247 17.8872 18.5216 16.7608 17.2069 16.7608H12.2815C11.9899 16.7608 11.8014 16.5022 11.8844 16.2021C11.9686 15.9008 12.2815 15.6434 12.5731 15.6434H18.9489" fill="#FAFAFA"/>
    <path d="M1.94433 41.12C1.30433 41.12 0.820328 40.94 0.492328 40.58C0.164328 40.212 0.000328146 39.688 0.000328146 39.008V38.528H1.24833V39.104C1.24833 39.648 1.47633 39.92 1.93233 39.92C2.15633 39.92 2.32433 39.856 2.43633 39.728C2.55633 39.592 2.61633 39.376 2.61633 39.08C2.61633 38.728 2.53633 38.42 2.37633 38.156C2.21633 37.884 1.92033 37.56 1.48833 37.184C0.944328 36.704 0.564328 36.272 0.348328 35.888C0.132328 35.496 0.0243281 35.056 0.0243281 34.568C0.0243281 33.904 0.192328 33.392 0.528328 33.032C0.864328 32.664 1.35233 32.48 1.99233 32.48C2.62433 32.48 3.10033 32.664 3.42033 33.032C3.74833 33.392 3.91233 33.912 3.91233 34.592V34.94H2.66433V34.508C2.66433 34.22 2.60833 34.012 2.49633 33.884C2.38433 33.748 2.22033 33.68 2.00433 33.68C1.56433 33.68 1.34433 33.948 1.34433 34.484C1.34433 34.788 1.42433 35.072 1.58433 35.336C1.75233 35.6 2.05233 35.92 2.48433 36.296C3.03633 36.776 3.41633 37.212 3.62433 37.604C3.83233 37.996 3.93633 38.456 3.93633 38.984C3.93633 39.672 3.76433 40.2 3.42033 40.568C3.08433 40.936 2.59233 41.12 1.94433 41.12ZM5.72517 33.8H4.34517V32.6H8.42517V33.8H7.04517V41H5.72517V33.8ZM10.9843 41.12C10.3443 41.12 9.85627 40.94 9.52027 40.58C9.18427 40.212 9.01627 39.688 9.01627 39.008V32.6H10.3363V39.104C10.3363 39.392 10.3923 39.6 10.5043 39.728C10.6243 39.856 10.7923 39.92 11.0083 39.92C11.2243 39.92 11.3883 39.856 11.5003 39.728C11.6203 39.6 11.6803 39.392 11.6803 39.104V32.6H12.9523V39.008C12.9523 39.688 12.7843 40.212 12.4483 40.58C12.1123 40.94 11.6243 41.12 10.9843 41.12ZM13.8924 32.6H15.9084C16.5644 32.6 17.0564 32.776 17.3844 33.128C17.7124 33.48 17.8764 33.996 17.8764 34.676V38.924C17.8764 39.604 17.7124 40.12 17.3844 40.472C17.0564 40.824 16.5644 41 15.9084 41H13.8924V32.6ZM15.8844 39.8C16.1004 39.8 16.2644 39.736 16.3764 39.608C16.4964 39.48 16.5564 39.272 16.5564 38.984V34.616C16.5564 34.328 16.4964 34.12 16.3764 33.992C16.2644 33.864 16.1004 33.8 15.8844 33.8H15.2124V39.8H15.8844ZM18.7674 32.6H20.0874V41H18.7674V32.6ZM22.984 41.12C22.336 41.12 21.84 40.936 21.496 40.568C21.152 40.2 20.98 39.68 20.98 39.008V34.592C20.98 33.92 21.152 33.4 21.496 33.032C21.84 32.664 22.336 32.48 22.984 32.48C23.632 32.48 24.128 32.664 24.472 33.032C24.816 33.4 24.988 33.92 24.988 34.592V39.008C24.988 39.68 24.816 40.2 24.472 40.568C24.128 40.936 23.632 41.12 22.984 41.12ZM22.984 39.92C23.44 39.92 23.668 39.644 23.668 39.092V34.508C23.668 33.956 23.44 33.68 22.984 33.68C22.528 33.68 22.3 33.956 22.3 34.508V39.092C22.3 39.644 22.528 39.92 22.984 39.92ZM27.5967 41.12C26.9567 41.12 26.4727 40.94 26.1447 40.58C25.8167 40.212 25.6527 39.688 25.6527 39.008V38.528H26.9007V39.104C26.9007 39.648 27.1287 39.92 27.5847 39.92C27.8087 39.92 27.9767 39.856 28.0887 39.728C28.2087 39.592 28.2687 39.376 28.2687 39.08C28.2687 38.728 28.1887 38.42 28.0287 38.156C27.8687 37.884 27.5727 37.56 27.1407 37.184C26.5967 36.704 26.2167 36.272 26.0007 35.888C25.7847 35.496 25.6767 35.056 25.6767 34.568C25.6767 33.904 25.8447 33.392 26.1807 33.032C26.5167 32.664 27.0047 32.48 27.6447 32.48C28.2767 32.48 28.7527 32.664 29.0727 33.032C29.4007 33.392 29.5647 33.912 29.5647 34.592V34.94H28.3167V34.508C28.3167 34.22 28.2607 34.012 28.1487 33.884C28.0367 33.748 27.8727 33.68 27.6567 33.68C27.2167 33.68 26.9967 33.948 26.9967 34.484C26.9967 34.788 27.0767 35.072 27.2367 35.336C27.4047 35.6 27.7047 35.92 28.1367 36.296C28.6887 36.776 29.0687 37.212 29.2767 37.604C29.4847 37.996 29.5887 38.456 29.5887 38.984C29.5887 39.672 29.4167 40.2 29.0727 40.568C28.7367 40.936 28.2447 41.12 27.5967 41.12Z" fill="#FAFAFA"/>
</svg>
