<svg width="28" height="48" viewBox="0 0 28 48" fill="none" xmlns="http://www.w3.org/2000/svg">
    <path d="M10.7871 8.75H5.53711C5.05386 8.75 4.66211 9.14175 4.66211 9.625V14.875C4.66211 15.3582 5.05386 15.75 5.53711 15.75H10.7871C11.2704 15.75 11.6621 15.3582 11.6621 14.875V9.625C11.6621 9.14175 11.2704 8.75 10.7871 8.75Z" stroke="#FAFAFA" stroke-width="1.6" stroke-linejoin="round"/>
    <path d="M10.7871 19.25H5.53711C5.05386 19.25 4.66211 19.6418 4.66211 20.125V25.375C4.66211 25.8582 5.05386 26.25 5.53711 26.25H10.7871C11.2704 26.25 11.6621 25.8582 11.6621 25.375V20.125C11.6621 19.6418 11.2704 19.25 10.7871 19.25Z" stroke="#FAFAFA" stroke-width="1.6" stroke-linejoin="round"/>
    <path d="M21.2871 19H16.0371C15.5539 19 15.1621 19.3918 15.1621 19.875V25.125C15.1621 25.6082 15.5539 26 16.0371 26H21.2871C21.7704 26 22.1621 25.6082 22.1621 25.125V19.875C22.1621 19.3918 21.7704 19 21.2871 19Z" stroke="#FAFAFA" stroke-width="1.6" stroke-linejoin="round"/>
    <path d="M1.94433 41.12C1.30433 41.12 0.820328 40.94 0.492328 40.58C0.164328 40.212 0.000328146 39.688 0.000328146 39.008V38.528H1.24833V39.104C1.24833 39.648 1.47633 39.92 1.93233 39.92C2.15633 39.92 2.32433 39.856 2.43633 39.728C2.55633 39.592 2.61633 39.376 2.61633 39.08C2.61633 38.728 2.53633 38.42 2.37633 38.156C2.21633 37.884 1.92033 37.56 1.48833 37.184C0.944328 36.704 0.564328 36.272 0.348328 35.888C0.132328 35.496 0.0243281 35.056 0.0243281 34.568C0.0243281 33.904 0.192328 33.392 0.528328 33.032C0.864328 32.664 1.35233 32.48 1.99233 32.48C2.62433 32.48 3.10033 32.664 3.42033 33.032C3.74833 33.392 3.91233 33.912 3.91233 34.592V34.94H2.66433V34.508C2.66433 34.22 2.60833 34.012 2.49633 33.884C2.38433 33.748 2.22033 33.68 2.00433 33.68C1.56433 33.68 1.34433 33.948 1.34433 34.484C1.34433 34.788 1.42433 35.072 1.58433 35.336C1.75233 35.6 2.05233 35.92 2.48433 36.296C3.03633 36.776 3.41633 37.212 3.62433 37.604C3.83233 37.996 3.93633 38.456 3.93633 38.984C3.93633 39.672 3.76433 40.2 3.42033 40.568C3.08433 40.936 2.59233 41.12 1.94433 41.12ZM4.69317 32.6H6.63717C7.29317 32.6 7.78517 32.776 8.11317 33.128C8.44117 33.48 8.60517 33.996 8.60517 34.676V35.504C8.60517 36.184 8.44117 36.7 8.11317 37.052C7.78517 37.404 7.29317 37.58 6.63717 37.58H6.01317V41H4.69317V32.6ZM6.63717 36.38C6.85317 36.38 7.01317 36.32 7.11717 36.2C7.22917 36.08 7.28517 35.876 7.28517 35.588V34.592C7.28517 34.304 7.22917 34.1 7.11717 33.98C7.01317 33.86 6.85317 33.8 6.63717 33.8H6.01317V36.38H6.63717ZM11.2301 41.12C10.5821 41.12 10.0861 40.936 9.74208 40.568C9.39808 40.2 9.22608 39.68 9.22608 39.008V34.592C9.22608 33.92 9.39808 33.4 9.74208 33.032C10.0861 32.664 10.5821 32.48 11.2301 32.48C11.8781 32.48 12.3741 32.664 12.7181 33.032C13.0621 33.4 13.2341 33.92 13.2341 34.592V39.008C13.2341 39.68 13.0621 40.2 12.7181 40.568C12.3741 40.936 11.8781 41.12 11.2301 41.12ZM11.2301 39.92C11.6861 39.92 11.9141 39.644 11.9141 39.092V34.508C11.9141 33.956 11.6861 33.68 11.2301 33.68C10.7741 33.68 10.5461 33.956 10.5461 34.508V39.092C10.5461 39.644 10.7741 39.92 11.2301 39.92ZM14.1268 32.6H16.0828C16.7628 32.6 17.2588 32.76 17.5708 33.08C17.8828 33.392 18.0388 33.876 18.0388 34.532V35.048C18.0388 35.92 17.7508 36.472 17.1748 36.704V36.728C17.4948 36.824 17.7188 37.02 17.8468 37.316C17.9828 37.612 18.0508 38.008 18.0508 38.504V39.98C18.0508 40.22 18.0588 40.416 18.0748 40.568C18.0908 40.712 18.1308 40.856 18.1948 41H16.8508C16.8028 40.864 16.7708 40.736 16.7548 40.616C16.7388 40.496 16.7308 40.28 16.7308 39.968V38.432C16.7308 38.048 16.6668 37.78 16.5388 37.628C16.4188 37.476 16.2068 37.4 15.9028 37.4H15.4468V41H14.1268V32.6ZM15.9268 36.2C16.1908 36.2 16.3868 36.132 16.5148 35.996C16.6508 35.86 16.7188 35.632 16.7188 35.312V34.664C16.7188 34.36 16.6628 34.14 16.5508 34.004C16.4468 33.868 16.2788 33.8 16.0468 33.8H15.4468V36.2H15.9268ZM19.9752 33.8H18.5952V32.6H22.6752V33.8H21.2952V41H19.9752V33.8ZM25.0303 41.12C24.3903 41.12 23.9063 40.94 23.5783 40.58C23.2503 40.212 23.0863 39.688 23.0863 39.008V38.528H24.3343V39.104C24.3343 39.648 24.5623 39.92 25.0183 39.92C25.2423 39.92 25.4103 39.856 25.5223 39.728C25.6423 39.592 25.7023 39.376 25.7023 39.08C25.7023 38.728 25.6223 38.42 25.4623 38.156C25.3023 37.884 25.0063 37.56 24.5743 37.184C24.0303 36.704 23.6503 36.272 23.4343 35.888C23.2183 35.496 23.1103 35.056 23.1103 34.568C23.1103 33.904 23.2783 33.392 23.6143 33.032C23.9503 32.664 24.4383 32.48 25.0783 32.48C25.7103 32.48 26.1863 32.664 26.5063 33.032C26.8343 33.392 26.9983 33.912 26.9983 34.592V34.94H25.7503V34.508C25.7503 34.22 25.6943 34.012 25.5823 33.884C25.4703 33.748 25.3063 33.68 25.0903 33.68C24.6503 33.68 24.4303 33.948 24.4303 34.484C24.4303 34.788 24.5103 35.072 24.6703 35.336C24.8383 35.6 25.1383 35.92 25.5703 36.296C26.1223 36.776 26.5023 37.212 26.7103 37.604C26.9183 37.996 27.0223 38.456 27.0223 38.984C27.0223 39.672 26.8503 40.2 26.5063 40.568C26.1703 40.936 25.6783 41.12 25.0303 41.12Z" fill="#FAFAFA"/>
    <g clip-path="url(#clip0_998_1387)">
        <path d="M21.5109 9.20086C20.9376 8.62814 20.2074 8.23823 19.4126 8.08042C18.6178 7.92261 17.794 8.00398 17.0454 8.31426C16.2969 8.62454 15.6571 9.14978 15.207 9.8236C14.7568 10.4974 14.5166 11.2896 14.5166 12.0999C14.5166 12.9102 14.7568 13.7024 15.207 14.3762C15.6571 15.05 16.2969 15.5753 17.0454 15.8856C17.794 16.1958 18.6178 16.2772 19.4126 16.1194C20.2074 15.9616 20.9376 15.5717 21.5109 14.9989C22.2786 14.2295 22.7098 13.1869 22.7098 12.0999C22.7098 11.0129 22.2786 9.97033 21.5109 9.20086ZM22.006 11.735C21.5962 11.7847 21.1806 11.7406 20.7905 11.6059C20.4003 11.4712 20.0459 11.2496 19.7541 10.9577C19.4623 10.6659 19.2407 10.3115 19.1061 9.92131C18.9714 9.53116 18.9273 9.1155 18.9771 8.70579C19.7526 8.78732 20.4766 9.13268 21.0279 9.68408C21.5792 10.2355 21.9245 10.9595 22.006 11.735ZM15.2177 12.4648C15.6274 12.4151 16.0431 12.4593 16.4332 12.5939C16.8234 12.7286 17.1778 12.9502 17.4696 13.2421C17.7614 13.5339 17.983 13.8884 18.1176 14.2785C18.2522 14.6686 18.2964 15.0843 18.2466 15.494C17.4711 15.4125 16.7471 15.0671 16.1958 14.5157C15.6444 13.9643 15.2992 13.2403 15.2177 12.4648ZM21.0278 14.5148C20.4664 15.0774 19.7257 15.4254 18.9344 15.4985C18.9834 14.9973 18.9207 14.4916 18.7509 14.0176C18.581 13.5435 18.3082 13.1131 17.9521 12.7571C17.5959 12.4012 17.1653 12.1286 16.6912 11.959C16.2171 11.7894 15.7113 11.727 15.2102 11.7763C15.2845 10.9851 15.6329 10.2448 16.1951 9.68311C16.7573 9.12146 17.498 8.77385 18.2893 8.70032C18.2434 9.17406 18.297 9.65217 18.4469 10.1039C18.5968 10.5557 18.8395 10.9711 19.1595 11.3234C19.4794 11.6758 19.8696 11.9573 20.3049 12.1499C20.7401 12.3424 21.2109 12.4418 21.6868 12.4416C21.7952 12.4416 21.9038 12.4361 22.0125 12.4259C21.9382 13.2161 21.5899 13.9555 21.0278 14.5158V14.5148Z" fill="#FAFAFA"/>
    </g>
    <defs>
        <clipPath id="clip0_998_1387">
            <rect width="8.2" height="8.2" fill="white" transform="translate(14.5117 8)"/>
        </clipPath>
    </defs>
</svg>
