<svg width="22" height="17" viewBox="0 0 22 17" fill="none" xmlns="http://www.w3.org/2000/svg">
<path d="M17.2229 0.337994C16.7935 0.788653 16.7935 1.51932 17.2229 1.96997C20.6598 5.57641 20.6598 11.4236 17.2229 15.03C16.7935 15.4807 16.7935 16.2113 17.2229 16.662C17.6524 17.1127 18.3487 17.1127 18.7782 16.662C23.0739 12.1543 23.0739 4.84575 18.7782 0.337994C18.3487 -0.112665 17.6524 -0.112665 17.2229 0.337994ZM3.22182 0.337994C-1.07394 4.84575 -1.07394 12.1543 3.22182 16.662C3.65129 17.1127 4.34759 17.1127 4.77706 16.662C5.20653 16.2113 5.20653 15.4807 4.77706 15.03C1.34023 11.4236 1.34023 5.57641 4.77706 1.96997C5.20653 1.51932 5.20653 0.788653 4.77706 0.337994C4.34759 -0.112665 3.65129 -0.112665 3.22182 0.337994ZM13.9605 3.65383C13.531 4.10448 13.531 4.83515 13.9605 5.28581C15.6441 7.05251 15.6441 9.91691 13.9605 11.6836C13.531 12.1343 13.531 12.8649 13.9605 13.3156C14.3899 13.7663 15.0862 13.7663 15.5157 13.3156C18.0583 10.6476 18.0583 6.32185 15.5157 3.65383C15.0862 3.20317 14.3899 3.20317 13.9605 3.65383ZM6.30829 3.65383C3.76573 6.32185 3.76573 10.6476 6.30829 13.3156C6.73775 13.7663 7.43406 13.7663 7.86352 13.3156C8.29299 12.8649 8.29299 12.1343 7.86352 11.6836C6.1799 9.91691 6.1799 7.05251 7.86352 5.28581C8.29299 4.83515 8.29299 4.10448 7.86352 3.65383C7.43406 3.20317 6.73775 3.20317 6.30829 3.65383ZM10.912 6.8497C10.001 6.8497 9.26242 7.62468 9.26242 8.58067C9.26242 9.53666 10.001 10.3116 10.912 10.3116C11.823 10.3116 12.5616 9.53666 12.5616 8.58067C12.5616 7.62468 11.823 6.8497 10.912 6.8497Z" fill="white"/>
</svg>
