<svg width="21" height="21" viewBox="0 0 21 21" fill="none" xmlns="http://www.w3.org/2000/svg">
<path d="M21 0H0V21H21V0Z" fill="white" fill-opacity="0.01"/>
<path d="M7.875 1.75H2.625C2.14175 1.75 1.75 2.14175 1.75 2.625V7.875C1.75 8.35825 2.14175 8.75 2.625 8.75H7.875C8.35825 8.75 8.75 8.35825 8.75 7.875V2.625C8.75 2.14175 8.35825 1.75 7.875 1.75Z" stroke="white" stroke-width="1.6" stroke-linejoin="round"/>
<path d="M7.875 12.25H2.625C2.14175 12.25 1.75 12.6418 1.75 13.125V18.375C1.75 18.8582 2.14175 19.25 2.625 19.25H7.875C8.35825 19.25 8.75 18.8582 8.75 18.375V13.125C8.75 12.6418 8.35825 12.25 7.875 12.25Z" stroke="white" stroke-width="1.6" stroke-linejoin="round"/>
<path d="M18.377 12H13.127C12.6437 12 12.252 12.3918 12.252 12.875V18.125C12.252 18.6082 12.6437 19 13.127 19H18.377C18.8602 19 19.252 18.6082 19.252 18.125V12.875C19.252 12.3918 18.8602 12 18.377 12Z" stroke="white" stroke-width="1.6" stroke-linejoin="round"/>
</svg>
