<svg width="24" height="24" viewBox="0 0 24 24" fill="none" xmlns="http://www.w3.org/2000/svg">
<circle cx="19.9945" cy="4.9222" r="1.9222" stroke="#FAFAFA" stroke-width="2" stroke-linecap="round" stroke-linejoin="round"/>
<path d="M14.9238 3.84229H7.65606C4.64462 3.84229 2.77734 5.97501 2.77734 8.98645V17.0688C2.77734 20.0803 4.60801 22.2038 7.65606 22.2038H16.2602C19.2716 22.2038 21.1389 20.0803 21.1389 17.0688V10.0299" stroke="#FAFAFA" stroke-width="2" stroke-linecap="round" stroke-linejoin="round"/>
<path d="M18 8.72168H10.7796C9.46502 8.72168 8.0775 9.84939 7.72183 11.2021C7.36741 12.5549 8.17051 13.6826 9.48513 13.6826H14.4106C14.7034 13.6826 14.8907 13.9399 14.8077 14.2412C14.7235 14.5413 14.4219 14.7986 14.119 14.7986H7.84751L6 16.7217H13.6175C14.9321 16.7217 16.3209 15.6043 16.6753 14.2412C17.0297 12.8872 16.2266 11.7608 14.912 11.7608H9.98659C9.69501 11.7608 9.50649 11.5022 9.58944 11.2021C9.67365 10.9008 9.98659 10.6434 10.2782 10.6434H16.654" fill="#FAFAFA"/>
</svg>
