<svg width="43" height="48" viewBox="0 0 43 48" fill="none" xmlns="http://www.w3.org/2000/svg">
    <path d="M26.7171 9.33799C26.2876 9.78865 26.2876 10.5193 26.7171 10.97C30.1539 14.5764 30.1539 20.4236 26.7171 24.03C26.2876 24.4807 26.2876 25.2113 26.7171 25.662C27.1465 26.1127 27.8428 26.1127 28.2723 25.662C32.5681 21.1543 32.5681 13.8457 28.2723 9.33799C27.8428 8.88734 27.1465 8.88734 26.7171 9.33799ZM12.716 9.33799C8.4202 13.8457 8.4202 21.1543 12.716 25.662C13.1454 26.1127 13.8417 26.1127 14.2712 25.662C14.7007 25.2113 14.7007 24.4807 14.2712 24.03C10.8344 20.4236 10.8344 14.5764 14.2712 10.97C14.7007 10.5193 14.7007 9.78865 14.2712 9.33799C13.8417 8.88734 13.1454 8.88734 12.716 9.33799ZM23.4546 12.6538C23.0251 13.1045 23.0251 13.8351 23.4546 14.2858C25.1382 16.0525 25.1382 18.9169 23.4546 20.6836C23.0251 21.1343 23.0251 21.8649 23.4546 22.3156C23.8841 22.7663 24.5804 22.7663 25.0098 22.3156C27.5524 19.6476 27.5524 15.3219 25.0098 12.6538C24.5804 12.2032 23.8841 12.2032 23.4546 12.6538ZM15.8024 12.6538C13.2599 15.3219 13.2599 19.6476 15.8024 22.3156C16.2319 22.7663 16.9282 22.7663 17.3577 22.3156C17.7871 21.8649 17.7871 21.1343 17.3577 20.6836C15.674 18.9169 15.674 16.0525 17.3577 14.2858C17.7871 13.8351 17.7871 13.1045 17.3577 12.6538C16.9282 12.2032 16.2319 12.2032 15.8024 12.6538ZM20.4061 15.8497C19.4951 15.8497 18.7566 16.6247 18.7566 17.5807C18.7566 18.5367 19.4951 19.3116 20.4061 19.3116C21.3172 19.3116 22.0557 18.5367 22.0557 17.5807C22.0557 16.6247 21.3172 15.8497 20.4061 15.8497Z" fill="#FAFAFA"/>
    <path d="M-0.000187486 32.6H1.31981V39.8H3.49181V41H-0.000187486V32.6ZM4.12481 32.6H5.44481V41H4.12481V32.6ZM6.08541 32.6H7.41741L8.28141 39.116H8.30541L9.16941 32.6H10.3814L9.10941 41H7.35741L6.08541 32.6ZM11.0154 32.6H14.6154V33.8H12.3354V36.02H14.1474V37.22H12.3354V39.8H14.6154V41H11.0154V32.6ZM17.1143 41.12C16.4743 41.12 15.9903 40.94 15.6623 40.58C15.3343 40.212 15.1703 39.688 15.1703 39.008V38.528H16.4183V39.104C16.4183 39.648 16.6463 39.92 17.1023 39.92C17.3263 39.92 17.4943 39.856 17.6063 39.728C17.7263 39.592 17.7863 39.376 17.7863 39.08C17.7863 38.728 17.7063 38.42 17.5463 38.156C17.3863 37.884 17.0903 37.56 16.6583 37.184C16.1143 36.704 15.7343 36.272 15.5183 35.888C15.3023 35.496 15.1943 35.056 15.1943 34.568C15.1943 33.904 15.3623 33.392 15.6982 33.032C16.0343 32.664 16.5223 32.48 17.1623 32.48C17.7943 32.48 18.2703 32.664 18.5903 33.032C18.9183 33.392 19.0823 33.912 19.0823 34.592V34.94H17.8343V34.508C17.8343 34.22 17.7783 34.012 17.6663 33.884C17.5543 33.748 17.3903 33.68 17.1743 33.68C16.7343 33.68 16.5143 33.948 16.5143 34.484C16.5143 34.788 16.5943 35.072 16.7543 35.336C16.9223 35.6 17.2223 35.92 17.6543 36.296C18.2063 36.776 18.5863 37.212 18.7943 37.604C19.0023 37.996 19.1063 38.456 19.1063 38.984C19.1063 39.672 18.9343 40.2 18.5903 40.568C18.2543 40.936 17.7623 41.12 17.1143 41.12ZM21.7231 41.12C21.0911 41.12 20.6071 40.94 20.2711 40.58C19.9431 40.22 19.7791 39.712 19.7791 39.056V34.544C19.7791 33.888 19.9431 33.38 20.2711 33.02C20.6071 32.66 21.0911 32.48 21.7231 32.48C22.3551 32.48 22.8351 32.66 23.1631 33.02C23.4991 33.38 23.6671 33.888 23.6671 34.544V35.432H22.4191V34.46C22.4191 33.94 22.1991 33.68 21.7591 33.68C21.3191 33.68 21.0991 33.94 21.0991 34.46V39.152C21.0991 39.664 21.3191 39.92 21.7591 39.92C22.1991 39.92 22.4191 39.664 22.4191 39.152V37.868H23.6671V39.056C23.6671 39.712 23.4991 40.22 23.1631 40.58C22.8351 40.94 22.3551 41.12 21.7231 41.12ZM26.3883 41.12C25.7403 41.12 25.2443 40.936 24.9003 40.568C24.5563 40.2 24.3843 39.68 24.3843 39.008V34.592C24.3843 33.92 24.5563 33.4 24.9003 33.032C25.2443 32.664 25.7403 32.48 26.3883 32.48C27.0363 32.48 27.5323 32.664 27.8763 33.032C28.2203 33.4 28.3923 33.92 28.3923 34.592V39.008C28.3923 39.68 28.2203 40.2 27.8763 40.568C27.5323 40.936 27.0363 41.12 26.3883 41.12ZM26.3883 39.92C26.8443 39.92 27.0723 39.644 27.0723 39.092V34.508C27.0723 33.956 26.8443 33.68 26.3883 33.68C25.9323 33.68 25.7043 33.956 25.7043 34.508V39.092C25.7043 39.644 25.9323 39.92 26.3883 39.92ZM29.285 32.6H31.241C31.921 32.6 32.417 32.76 32.729 33.08C33.041 33.392 33.197 33.876 33.197 34.532V35.048C33.197 35.92 32.909 36.472 32.333 36.704V36.728C32.653 36.824 32.877 37.02 33.005 37.316C33.141 37.612 33.209 38.008 33.209 38.504V39.98C33.209 40.22 33.217 40.416 33.233 40.568C33.249 40.712 33.289 40.856 33.353 41H32.009C31.961 40.864 31.929 40.736 31.913 40.616C31.897 40.496 31.889 40.28 31.889 39.968V38.432C31.889 38.048 31.825 37.78 31.697 37.628C31.577 37.476 31.365 37.4 31.061 37.4H30.605V41H29.285V32.6ZM31.085 36.2C31.349 36.2 31.545 36.132 31.673 35.996C31.809 35.86 31.877 35.632 31.877 35.312V34.664C31.877 34.36 31.821 34.14 31.709 34.004C31.605 33.868 31.437 33.8 31.205 33.8H30.605V36.2H31.085ZM34.1248 32.6H37.7248V33.8H35.4448V36.02H37.2568V37.22H35.4448V39.8H37.7248V41H34.1248V32.6ZM40.2236 41.12C39.5836 41.12 39.0996 40.94 38.7716 40.58C38.4436 40.212 38.2796 39.688 38.2796 39.008V38.528H39.5276V39.104C39.5276 39.648 39.7556 39.92 40.2116 39.92C40.4356 39.92 40.6036 39.856 40.7156 39.728C40.8356 39.592 40.8956 39.376 40.8956 39.08C40.8956 38.728 40.8156 38.42 40.6556 38.156C40.4956 37.884 40.1996 37.56 39.7676 37.184C39.2236 36.704 38.8436 36.272 38.6276 35.888C38.4116 35.496 38.3036 35.056 38.3036 34.568C38.3036 33.904 38.4716 33.392 38.8076 33.032C39.1436 32.664 39.6316 32.48 40.2716 32.48C40.9036 32.48 41.3796 32.664 41.6996 33.032C42.0276 33.392 42.1916 33.912 42.1916 34.592V34.94H40.9436V34.508C40.9436 34.22 40.8876 34.012 40.7756 33.884C40.6636 33.748 40.4996 33.68 40.2836 33.68C39.8436 33.68 39.6236 33.948 39.6236 34.484C39.6236 34.788 39.7036 35.072 39.8636 35.336C40.0316 35.6 40.3316 35.92 40.7636 36.296C41.3156 36.776 41.6956 37.212 41.9036 37.604C42.1116 37.996 42.2156 38.456 42.2156 38.984C42.2156 39.672 42.0436 40.2 41.6996 40.568C41.3636 40.936 40.8716 41.12 40.2236 41.12Z" fill="#FAFAFA"/>
</svg>
