<svg width="24" height="48" viewBox="0 0 24 48" fill="none" xmlns="http://www.w3.org/2000/svg">
    <path d="M9.64373 26.7821V23.7152C9.64372 22.9381 10.2757 22.3067 11.0584 22.3018H13.9326C14.7189 22.3018 15.3563 22.9346 15.3563 23.7152V26.7732C15.3562 27.4473 15.904 27.9951 16.5829 28H18.5438C19.4596 28.0023 20.3388 27.6428 20.9872 27.0007C21.6356 26.3586 22 25.4868 22 24.5775V15.8658C22 15.1314 21.6721 14.4347 21.1046 13.9635L14.443 8.67427C13.2785 7.74912 11.6154 7.77901 10.4854 8.74538L3.96701 13.9635C3.37274 14.4208 3.01755 15.1196 3 15.8658V24.5686C3 26.4637 4.54738 28 6.45617 28H8.37229C8.69917 28.0023 9.01349 27.8751 9.24547 27.6464C9.47746 27.4178 9.60793 27.1067 9.60792 26.7821H9.64373Z" fill="#FAFAFA"/>
    <path d="M2.66192 32.6H3.98192V36.02H5.39792V32.6H6.71792V41H5.39792V37.22H3.98192V41H2.66192V32.6ZM9.60898 41.12C8.96098 41.12 8.46498 40.936 8.12098 40.568C7.77698 40.2 7.60498 39.68 7.60498 39.008V34.592C7.60498 33.92 7.77698 33.4 8.12098 33.032C8.46498 32.664 8.96098 32.48 9.60898 32.48C10.257 32.48 10.753 32.664 11.097 33.032C11.441 33.4 11.613 33.92 11.613 34.592V39.008C11.613 39.68 11.441 40.2 11.097 40.568C10.753 40.936 10.257 41.12 9.60898 41.12ZM9.60898 39.92C10.065 39.92 10.293 39.644 10.293 39.092V34.508C10.293 33.956 10.065 33.68 9.60898 33.68C9.15298 33.68 8.92498 33.956 8.92498 34.508V39.092C8.92498 39.644 9.15298 39.92 9.60898 39.92ZM12.5057 32.6H14.3897L15.2297 38.612H15.2537L16.0937 32.6H17.9777V41H16.7297V34.64H16.7057L15.7457 41H14.6417L13.6817 34.64H13.6577V41H12.5057V32.6ZM18.9627 32.6H22.5627V33.8H20.2827V36.02H22.0947V37.22H20.2827V39.8H22.5627V41H18.9627V32.6Z" fill="#FAFAFA"/>
</svg>
