<svg width="24" height="48" viewBox="0 0 24 48" fill="none" xmlns="http://www.w3.org/2000/svg">
    <path d="M4.3045 32.6H5.6245V39.8H7.7965V41H4.3045V32.6ZM8.4295 32.6H9.7495V41H8.4295V32.6ZM10.3901 32.6H11.7221L12.5861 39.116H12.6101L13.4741 32.6H14.6861L13.4141 41H11.6621L10.3901 32.6ZM15.3201 32.6H18.9201V33.8H16.6401V36.02H18.4521V37.22H16.6401V39.8H18.9201V41H15.3201V32.6Z" fill="#FAFAFA"/>
    <path d="M22.2662 12.3872C21.8053 12.0969 21.2387 12.0712 20.7557 12.3169L19.1253 13.14C18.5225 13.4438 18.1484 14.0581 18.1484 14.7416V21.159C18.1484 21.8426 18.5225 22.4557 19.1253 22.7618L20.7546 23.5838C20.9758 23.6978 21.2123 23.7524 21.4488 23.7524C21.7326 23.7524 22.0143 23.672 22.2662 23.5146C22.7272 23.2253 23.0022 22.7238 23.0022 22.1743V13.7286C23.0022 13.1791 22.7272 12.6776 22.2662 12.3872Z" fill="#FAFAFA"/>
    <path d="M11.8978 26.2016H5.52526C2.8605 26.2016 1 24.3643 1 21.7342V14.1674C1 11.5361 2.8605 9.69995 5.52526 9.69995H11.8978C14.5626 9.69995 16.423 11.5361 16.423 14.1674V21.7342C16.423 24.3643 14.5626 26.2016 11.8978 26.2016Z" fill="#FAFAFA"/>
    <path fill-rule="evenodd" clip-rule="evenodd" d="M11.9962 16.587L7.81162 14.0398C7.11105 13.6137 6.23926 14.1529 6.23926 15.0108V20.1048C6.23926 20.9639 7.11105 21.502 7.81162 21.0758L11.9962 18.53C12.702 18.1004 12.702 17.0165 11.9962 16.587Z" fill="#FAFAFA"/>
</svg>
